<svg xmlns="http://www.w3.org/2000/svg" xmlns:xlink="http://www.w3.org/1999/xlink" width="2000" zoomAndPan="magnify" viewBox="0 0 1500 1499.999933" height="2000" preserveAspectRatio="xMidYMid meet" version="1.0"><defs><g/><clipPath id="66db952f06"><rect x="0" width="847" y="0" height="624"/></clipPath></defs><rect x="-150" width="1800" fill="#ffffff" y="-149.999993" height="1799.99992" fill-opacity="1"/><rect x="-150" width="1800" fill="#0a0a0a" y="-149.999993" height="1799.99992" fill-opacity="1"/><g transform="matrix(1, 0, 0, 1, 374, 439)"><g clip-path="url(#66db952f06)"><g fill="#c9a84c" fill-opacity="1"><g transform="translate(1.124807, 360.335478)"><g><path d="M 135.1875 9.1875 C 137.382812 7.71875 139.582031 4.898438 141.78125 0.734375 C 143.988281 -3.429688 145.953125 -7.898438 147.671875 -12.671875 C 149.390625 -17.453125 150.738281 -21.3125 151.71875 -24.25 C 158.8125 -42.363281 165.234375 -60.296875 170.984375 -78.046875 C 176.742188 -95.804688 183.300781 -113.992188 190.65625 -132.609375 C 191.875 -135.796875 194.015625 -141 197.078125 -148.21875 C 200.140625 -155.445312 203.75 -163.648438 207.90625 -172.828125 C 212.070312 -182.015625 216.664062 -191.320312 221.6875 -200.75 C 226.707031 -210.175781 231.847656 -218.929688 237.109375 -227.015625 C 242.378906 -235.097656 247.523438 -241.648438 252.546875 -246.671875 C 257.566406 -251.691406 262.160156 -254.203125 266.328125 -254.203125 C 271.953125 -254.203125 276.113281 -251.445312 278.8125 -245.9375 C 281.507812 -240.425781 283.039062 -233.503906 283.40625 -225.171875 C 283.769531 -216.847656 283.582031 -208.21875 282.84375 -199.28125 C 282.113281 -190.34375 281.257812 -182.382812 280.28125 -175.40625 C 279.300781 -168.425781 278.566406 -163.710938 278.078125 -161.265625 L 255.296875 -9.546875 C 251.378906 17.628906 248.378906 44.195312 246.296875 70.15625 C 244.222656 96.113281 241.710938 122.320312 238.765625 148.78125 C 238.273438 155.382812 238.03125 162.601562 238.03125 170.4375 C 238.03125 178.28125 238.03125 185.628906 238.03125 192.484375 C 238.03125 195.671875 237.476562 198.054688 236.375 199.640625 C 235.28125 201.234375 234.117188 202.03125 232.890625 202.03125 C 231.421875 202.03125 230.015625 201.171875 228.671875 199.453125 C 227.328125 197.742188 226.53125 195.421875 226.28125 192.484375 C 226.039062 189.304688 225.921875 186.921875 225.921875 185.328125 C 225.921875 183.734375 225.796875 181.832031 225.546875 179.625 L 236.5625 15.796875 C 238.53125 0.367188 240.304688 -13.894531 241.890625 -27 C 243.484375 -40.101562 245.195312 -53.328125 247.03125 -66.671875 C 248.875 -80.015625 251.140625 -94.769531 253.828125 -110.9375 C 254.566406 -115.101562 255.671875 -121.59375 257.140625 -130.40625 C 258.609375 -139.21875 260.195312 -149.132812 261.90625 -160.15625 C 263.625 -171.175781 265.15625 -182.195312 266.5 -193.21875 C 267.851562 -204.238281 268.585938 -214.035156 268.703125 -222.609375 C 268.828125 -231.179688 268.035156 -237.304688 266.328125 -240.984375 C 261.671875 -238.523438 257.320312 -234.664062 253.28125 -229.40625 C 249.238281 -224.144531 245.875 -219.0625 243.1875 -214.15625 C 238.28125 -206.070312 234.050781 -198.660156 230.5 -191.921875 C 226.957031 -185.191406 223.59375 -178.398438 220.40625 -171.546875 C 217.21875 -164.691406 213.664062 -156.859375 209.75 -148.046875 C 203.625 -134.566406 198.722656 -122.316406 195.046875 -111.296875 C 191.378906 -100.285156 187.097656 -88.65625 182.203125 -76.40625 C 180.972656 -73.21875 179.195312 -67.765625 176.875 -60.046875 C 174.550781 -52.335938 171.796875 -43.769531 168.609375 -34.34375 C 165.421875 -24.914062 161.988281 -15.851562 158.3125 -7.15625 C 154.644531 1.53125 150.851562 8.75 146.9375 14.5 C 143.019531 20.257812 139.101562 23.140625 135.1875 23.140625 C 131.269531 23.140625 128.207031 20.992188 126 16.703125 C 123.789062 12.421875 122.257812 7.097656 121.40625 0.734375 C 120.550781 -5.628906 120.125 -11.992188 120.125 -18.359375 C 120.125 -24.734375 120.242188 -29.878906 120.484375 -33.796875 L 126 -107.265625 C 126 -108.734375 125.875 -110.382812 125.625 -112.21875 C 125.382812 -114.0625 125.265625 -116.328125 125.265625 -119.015625 C 123.054688 -118.523438 121.707031 -117.910156 121.21875 -117.171875 C 120.726562 -116.441406 119.875 -115.222656 118.65625 -113.515625 C 113.507812 -106.648438 108.671875 -98.257812 104.140625 -88.34375 C 99.609375 -78.425781 95.382812 -67.894531 91.46875 -56.75 C 87.550781 -45.613281 84.125 -34.78125 81.1875 -24.25 C 78.25 -13.71875 75.800781 -4.53125 73.84375 3.3125 C 70.894531 14.820312 68.015625 26.515625 65.203125 38.390625 C 62.390625 50.265625 59.390625 61.585938 56.203125 72.359375 C 54.242188 80.691406 51.914062 88.894531 49.21875 96.96875 C 46.53125 105.050781 43.472656 113.132812 40.046875 121.21875 C 38.328125 124.15625 36.671875 126.484375 35.078125 128.203125 C 33.484375 129.921875 30.851562 130.78125 27.1875 130.78125 C 23.019531 130.78125 19.46875 127.65625 16.53125 121.40625 C 13.59375 115.164062 11.265625 107.144531 9.546875 97.34375 C 7.835938 87.550781 6.550781 77.328125 5.6875 66.671875 C 4.832031 56.015625 4.28125 46.09375 4.03125 36.90625 C 3.789062 27.726562 3.671875 20.8125 3.671875 16.15625 L 7.34375 -58.046875 C 8.570312 -69.554688 9.921875 -81.003906 11.390625 -92.390625 C 12.859375 -103.773438 14.445312 -115.097656 16.15625 -126.359375 C 16.40625 -127.585938 17.019531 -131.320312 18 -137.5625 C 18.976562 -143.8125 20.382812 -151.46875 22.21875 -160.53125 C 24.0625 -169.59375 26.082031 -179.082031 28.28125 -189 C 30.488281 -198.914062 32.816406 -208.21875 35.265625 -216.90625 C 37.710938 -225.601562 40.222656 -232.644531 42.796875 -238.03125 C 45.367188 -243.425781 47.878906 -246.125 50.328125 -246.125 C 53.753906 -246.125 55.648438 -244.894531 56.015625 -242.4375 C 56.390625 -239.988281 56.082031 -237.113281 55.09375 -233.8125 C 54.113281 -230.507812 53.257812 -227.632812 52.53125 -225.1875 C 48.613281 -211.226562 45.429688 -198.550781 42.984375 -187.15625 C 40.535156 -175.769531 38.269531 -164.257812 36.1875 -152.625 C 34.101562 -141 31.957031 -127.71875 29.75 -112.78125 C 27.789062 -99.3125 25.953125 -83.632812 24.234375 -65.75 C 22.523438 -47.875 21.117188 -29.078125 20.015625 -9.359375 C 18.910156 10.347656 18.601562 29.507812 19.09375 48.125 C 19.59375 66.738281 21.066406 83.515625 23.515625 98.453125 L 27.1875 116.453125 C 29.144531 115.960938 30.367188 115.164062 30.859375 114.0625 C 31.347656 112.957031 32.082031 111.425781 33.0625 109.46875 L 41.875 83.015625 C 47.507812 62.929688 53.019531 42.113281 58.40625 20.5625 C 63.789062 -0.976562 69.726562 -22.097656 76.21875 -42.796875 C 82.707031 -63.492188 90.238281 -82.65625 98.8125 -100.28125 C 101.257812 -104.9375 104.132812 -110.265625 107.4375 -116.265625 C 110.75 -122.265625 114.363281 -126.488281 118.28125 -128.9375 C 120.488281 -130.40625 122.9375 -131.140625 125.625 -131.140625 C 129.789062 -131.140625 132.609375 -129.425781 134.078125 -126 C 136.035156 -122.570312 137.132812 -116.328125 137.375 -107.265625 C 137.625 -98.203125 137.378906 -88.035156 136.640625 -76.765625 C 135.910156 -65.503906 135.175781 -54.609375 134.4375 -44.078125 C 133.707031 -33.546875 133.34375 -25.097656 133.34375 -18.734375 C 133.34375 -11.390625 133.648438 -5.878906 134.265625 -2.203125 C 134.878906 1.472656 135.1875 5.269531 135.1875 9.1875 Z M 135.1875 9.1875 "/></g></g></g><g fill="#c9a84c" fill-opacity="1"><g transform="translate(282.138671, 360.335478)"><g><path d="M 18.359375 -8.453125 C 22.035156 -9.429688 25.34375 -12.675781 28.28125 -18.1875 C 31.21875 -23.695312 33.296875 -30 34.515625 -37.09375 C 35.742188 -44.195312 36.050781 -50.75 35.4375 -56.75 C 34.832031 -62.75 32.9375 -66.851562 29.75 -69.0625 C 29.019531 -66.363281 27.675781 -62.503906 25.71875 -57.484375 C 23.757812 -52.460938 21.859375 -46.953125 20.015625 -40.953125 C 18.179688 -34.953125 16.957031 -29.070312 16.34375 -23.3125 C 15.726562 -17.5625 16.398438 -12.609375 18.359375 -8.453125 Z M 0 -20.9375 C 0 -24.125 0.671875 -28.835938 2.015625 -35.078125 C 3.367188 -41.328125 5.269531 -48.0625 7.71875 -55.28125 C 10.164062 -62.507812 12.921875 -69.367188 15.984375 -75.859375 C 19.046875 -82.347656 22.347656 -87.671875 25.890625 -91.828125 C 29.441406 -95.992188 33.054688 -98.078125 36.734375 -98.078125 C 39.179688 -98.078125 40.894531 -96.972656 41.875 -94.765625 C 42.851562 -92.566406 43.097656 -90.734375 42.609375 -89.265625 C 42.117188 -88.035156 41.203125 -86.804688 39.859375 -85.578125 C 38.515625 -84.359375 37.347656 -83.015625 36.359375 -81.546875 C 36.859375 -79.835938 38.085938 -77.941406 40.046875 -75.859375 C 42.003906 -73.773438 43.960938 -71.019531 45.921875 -67.59375 C 47.878906 -64.164062 49.160156 -59.507812 49.765625 -53.625 C 50.378906 -47.75 49.707031 -40.035156 47.75 -30.484375 C 45.0625 -17.753906 40.773438 -8.203125 34.890625 -1.828125 C 29.015625 4.535156 23.257812 7.71875 17.625 7.71875 C 12.976562 7.71875 8.878906 5.328125 5.328125 0.546875 C 1.773438 -4.222656 0 -11.382812 0 -20.9375 Z M 0 -20.9375 "/></g></g></g><g fill="#c9a84c" fill-opacity="1"><g transform="translate(346.790254, 360.335478)"><g><path d="M 19.46875 -29.75 C 14.320312 -29.75 10.707031 -32.320312 8.625 -37.46875 C 6.550781 -42.613281 5.632812 -48.976562 5.875 -56.5625 C 6.125 -64.15625 7.101562 -71.75 8.8125 -79.34375 C 10.53125 -86.9375 12.675781 -93.300781 15.25 -98.4375 C 17.820312 -103.582031 20.453125 -106.15625 23.140625 -106.15625 C 27.796875 -106.15625 30.550781 -105.113281 31.40625 -103.03125 C 32.257812 -100.957031 32.070312 -97.710938 30.84375 -93.296875 C 29.625 -88.890625 28.21875 -83.316406 26.625 -76.578125 C 25.039062 -69.847656 24.25 -61.832031 24.25 -52.53125 C 24.738281 -53.019531 25.101562 -53.382812 25.34375 -53.625 C 25.59375 -53.875 25.835938 -54.117188 26.078125 -54.359375 L 43.34375 -83.390625 C 44.8125 -85.835938 46.832031 -89.082031 49.40625 -93.125 C 51.976562 -97.164062 54.796875 -100.835938 57.859375 -104.140625 C 60.921875 -107.441406 63.921875 -109.09375 66.859375 -109.09375 C 72.492188 -109.09375 76.164062 -106.210938 77.875 -100.453125 C 79.59375 -94.703125 80.453125 -88.890625 80.453125 -83.015625 C 83.140625 -83.503906 86.441406 -85.769531 90.359375 -89.8125 C 94.285156 -93.851562 97.835938 -97.34375 101.015625 -100.28125 C 102.734375 -102.238281 104.265625 -103.953125 105.609375 -105.421875 C 106.953125 -106.890625 108.609375 -108.113281 110.578125 -109.09375 C 113.023438 -110.320312 115.226562 -110.9375 117.1875 -110.9375 C 119.632812 -110.9375 121.710938 -109.957031 123.421875 -108 C 125.140625 -106.039062 126.117188 -102.425781 126.359375 -97.15625 C 126.609375 -91.894531 126.488281 -85.832031 126 -78.96875 C 125.507812 -72.113281 124.957031 -65.257812 124.34375 -58.40625 C 123.726562 -51.550781 123.421875 -45.550781 123.421875 -40.40625 C 123.421875 -29.144531 124.335938 -21.25 126.171875 -16.71875 C 128.015625 -12.1875 130.53125 -9.921875 133.71875 -9.921875 C 137.382812 -9.921875 141.484375 -12.367188 146.015625 -17.265625 C 150.546875 -22.160156 155.078125 -27.914062 159.609375 -34.53125 C 164.140625 -41.144531 168 -47.144531 171.1875 -52.53125 C 172.894531 -55.226562 174.546875 -57.921875 176.140625 -60.609375 C 177.734375 -63.304688 180.488281 -64.65625 184.40625 -64.65625 C 185.144531 -64.65625 185.941406 -64.164062 186.796875 -63.1875 C 187.648438 -62.207031 188.078125 -61.101562 188.078125 -59.875 C 188.078125 -58.40625 187.34375 -56.320312 185.875 -53.625 C 184.40625 -50.9375 182.875 -48.304688 181.28125 -45.734375 C 179.6875 -43.160156 178.398438 -41.140625 177.421875 -39.671875 C 176.441406 -37.960938 175.582031 -36.492188 174.84375 -35.265625 C 174.113281 -34.035156 173.140625 -32.441406 171.921875 -30.484375 C 170.941406 -29.015625 169.960938 -27.726562 168.984375 -26.625 C 168.003906 -25.53125 166.898438 -24.003906 165.671875 -22.046875 C 161.015625 -15.179688 155.441406 -9.175781 148.953125 -4.03125 C 142.460938 1.101562 136.160156 3.671875 130.046875 3.671875 C 126.609375 3.671875 123.296875 2.566406 120.109375 0.359375 C 116.929688 -1.835938 114.363281 -5.628906 112.40625 -11.015625 C 108.976562 -20.078125 107.320312 -29.628906 107.4375 -39.671875 C 107.5625 -49.710938 108.359375 -59.507812 109.828125 -69.0625 C 111.304688 -78.613281 112.046875 -86.941406 112.046875 -94.046875 C 109.585938 -92.328125 106.582031 -89.507812 103.03125 -85.59375 C 99.488281 -81.675781 95.878906 -78.0625 92.203125 -74.75 C 88.523438 -71.445312 84.972656 -69.796875 81.546875 -69.796875 C 75.910156 -69.796875 72.050781 -72.488281 69.96875 -77.875 C 67.894531 -83.257812 66.859375 -88.648438 66.859375 -94.046875 C 62.691406 -91.347656 58.707031 -86.566406 54.90625 -79.703125 C 51.113281 -72.847656 47.320312 -65.625 43.53125 -58.03125 C 39.738281 -50.445312 35.941406 -43.898438 32.140625 -38.390625 C 28.347656 -32.878906 24.367188 -30 20.203125 -29.75 Z M 19.46875 -29.75 "/></g></g></g><g fill="#c9a84c" fill-opacity="1"><g transform="translate(518.337285, 360.335478)"><g><path d="M 16.890625 -66.484375 C 21.546875 -68.929688 26.691406 -72.296875 32.328125 -76.578125 C 37.960938 -80.867188 41.023438 -85.953125 41.515625 -91.828125 C 38.328125 -91.335938 34.957031 -89.625 31.40625 -86.6875 C 27.851562 -83.75 24.789062 -80.441406 22.21875 -76.765625 C 19.644531 -73.097656 17.867188 -69.671875 16.890625 -66.484375 Z M 0.375 -57.671875 C 0.375 -63.796875 2.390625 -70.40625 6.421875 -77.5 C 10.460938 -84.601562 15.484375 -90.664062 21.484375 -95.6875 C 27.484375 -100.707031 33.425781 -103.21875 39.3125 -103.21875 C 47.382812 -103.21875 51.601562 -100.15625 51.96875 -94.03125 C 52.34375 -87.914062 49.710938 -81.304688 44.078125 -74.203125 C 41.140625 -71.015625 36.734375 -67.335938 30.859375 -63.171875 C 24.984375 -59.015625 19.226562 -56.691406 13.59375 -56.203125 C 13.59375 -52.285156 13.710938 -48.796875 13.953125 -45.734375 C 14.203125 -42.671875 15.921875 -39.546875 19.109375 -36.359375 C 22.285156 -33.179688 26.320312 -31.59375 31.21875 -31.59375 C 37.59375 -31.59375 44.207031 -33.613281 51.0625 -37.65625 C 57.914062 -41.695312 63.179688 -45.0625 66.859375 -47.75 C 68.328125 -48.976562 69.488281 -49.957031 70.34375 -50.6875 C 71.195312 -51.425781 72.238281 -52.285156 73.46875 -53.265625 C 78.613281 -57.179688 81.859375 -60.054688 83.203125 -61.890625 C 84.546875 -63.734375 85.707031 -64.957031 86.6875 -65.5625 C 87.664062 -66.175781 89.992188 -66.484375 93.671875 -66.484375 C 94.160156 -63.796875 94.34375 -61.960938 94.21875 -60.984375 C 94.101562 -60.003906 93.1875 -58.535156 91.46875 -56.578125 C 87.0625 -52.160156 81.488281 -47.132812 74.75 -41.5 C 68.019531 -35.875 60.796875 -30.976562 53.078125 -26.8125 C 45.367188 -22.65625 37.71875 -20.578125 30.125 -20.578125 C 26.207031 -20.578125 22.472656 -21.25 18.921875 -22.59375 C 15.367188 -23.9375 12 -26.203125 8.8125 -29.390625 C 4.40625 -33.796875 1.894531 -38.320312 1.28125 -42.96875 C 0.675781 -47.625 0.375 -52.523438 0.375 -57.671875 Z M 0.375 -57.671875 "/></g></g></g><g fill="#c9a84c" fill-opacity="1"><g transform="translate(598.049697, 360.335478)"><g><path d="M 10.28125 -19.109375 C 5.632812 -19.109375 2.632812 -21.921875 1.28125 -27.546875 C -0.0625 -33.179688 -0.242188 -40.222656 0.734375 -48.671875 C 1.710938 -57.117188 3.488281 -65.566406 6.0625 -74.015625 C 8.632812 -82.460938 11.507812 -89.503906 14.6875 -95.140625 C 17.875 -100.773438 20.816406 -103.59375 23.515625 -103.59375 C 27.671875 -103.59375 29.625 -101.691406 29.375 -97.890625 C 29.132812 -94.097656 27.910156 -89.078125 25.703125 -82.828125 C 23.503906 -76.585938 21.300781 -69.734375 19.09375 -62.265625 C 16.894531 -54.796875 15.796875 -47.507812 15.796875 -40.40625 L 33.421875 -67.21875 C 34.160156 -68.6875 35.753906 -71.257812 38.203125 -74.9375 C 40.648438 -78.613281 43.40625 -82.039062 46.46875 -85.21875 C 49.53125 -88.40625 52.53125 -90 55.46875 -90 C 58.40625 -90 60.734375 -88.039062 62.453125 -84.125 L 64.65625 -63.546875 C 64.65625 -61.347656 64.773438 -57.921875 65.015625 -53.265625 C 65.265625 -48.609375 65.816406 -43.890625 66.671875 -39.109375 C 67.523438 -34.335938 68.929688 -30.238281 70.890625 -26.8125 C 72.859375 -23.382812 75.554688 -21.671875 78.984375 -21.671875 C 82.648438 -21.671875 86.503906 -23.875 90.546875 -28.28125 C 94.585938 -32.6875 98.503906 -37.765625 102.296875 -43.515625 C 106.097656 -49.273438 109.53125 -54.359375 112.59375 -58.765625 C 115.65625 -63.179688 118.039062 -65.390625 119.75 -65.390625 C 123.425781 -65.390625 125.140625 -63.976562 124.890625 -61.15625 C 124.648438 -58.34375 123.425781 -55.097656 121.21875 -51.421875 C 119.019531 -47.753906 116.753906 -44.328125 114.421875 -41.140625 C 112.097656 -37.953125 110.691406 -35.992188 110.203125 -35.265625 C 108.484375 -33.054688 106.15625 -30.238281 103.21875 -26.8125 C 100.28125 -23.382812 97.21875 -20.203125 94.03125 -17.265625 C 90.851562 -14.328125 87.796875 -12.488281 84.859375 -11.75 C 82.410156 -11.019531 80.082031 -10.65625 77.875 -10.65625 C 72.238281 -10.65625 67.769531 -12.734375 64.46875 -16.890625 C 61.164062 -21.054688 58.65625 -25.585938 56.9375 -30.484375 C 54.488281 -37.835938 53.140625 -44.390625 52.890625 -50.140625 C 52.648438 -55.898438 52.648438 -60.796875 52.890625 -64.828125 C 53.140625 -68.867188 52.648438 -71.992188 51.421875 -74.203125 C 48.484375 -72.242188 45.363281 -68.320312 42.0625 -62.4375 C 38.757812 -56.5625 35.332031 -50.253906 31.78125 -43.515625 C 28.226562 -36.785156 24.675781 -31.035156 21.125 -26.265625 C 17.570312 -21.492188 13.957031 -19.109375 10.28125 -19.109375 Z M 10.28125 -19.109375 "/></g></g></g><g fill="#c9a84c" fill-opacity="1"><g transform="translate(708.251237, 360.335478)"><g><path d="M -103.21875 -163.828125 C -103.21875 -167.015625 -100.28125 -170.382812 -94.40625 -173.9375 C -88.53125 -177.488281 -81.125 -180.976562 -72.1875 -184.40625 C -63.25 -187.832031 -53.816406 -191.078125 -43.890625 -194.140625 C -33.972656 -197.203125 -24.851562 -199.832031 -16.53125 -202.03125 C -8.207031 -204.238281 -1.960938 -205.957031 2.203125 -207.1875 C 7.347656 -208.65625 10.957031 -209.507812 13.03125 -209.75 C 15.113281 -210 16.460938 -210.796875 17.078125 -212.140625 C 17.691406 -213.484375 18.367188 -216.238281 19.109375 -220.40625 C 21.066406 -230.445312 23.328125 -237.363281 25.890625 -241.15625 C 28.460938 -244.957031 30.972656 -246.859375 33.421875 -246.859375 C 35.378906 -246.859375 37.03125 -245.816406 38.375 -243.734375 C 39.726562 -241.648438 40.40625 -239.140625 40.40625 -236.203125 C 40.40625 -233.992188 40.28125 -233.070312 40.03125 -233.4375 C 39.789062 -233.8125 39.796875 -233.019531 40.046875 -231.0625 C 40.046875 -230.570312 40.101562 -229.957031 40.21875 -229.21875 C 40.34375 -228.488281 40.40625 -227.507812 40.40625 -226.28125 C 40.40625 -223.101562 39.789062 -221.515625 38.5625 -221.515625 C 37.34375 -221.515625 36.117188 -221.328125 34.890625 -220.953125 C 33.671875 -220.585938 33.0625 -218.445312 33.0625 -214.53125 C 36 -214.53125 39.242188 -214.957031 42.796875 -215.8125 C 46.347656 -216.664062 49.46875 -217.21875 52.15625 -217.46875 C 62.9375 -219.425781 73.710938 -221.203125 84.484375 -222.796875 C 95.265625 -224.390625 106.285156 -225.1875 117.546875 -225.1875 C 123.421875 -225.1875 127.707031 -223.957031 130.40625 -221.5 C 133.101562 -219.050781 134.082031 -216.601562 133.34375 -214.15625 C 132.613281 -211.707031 129.921875 -210.484375 125.265625 -210.484375 C 124.773438 -212.441406 124.46875 -213.359375 124.34375 -213.234375 C 124.21875 -213.117188 123.054688 -213.304688 120.859375 -213.796875 C 119.878906 -214.035156 117.921875 -214.15625 114.984375 -214.15625 C 109.835938 -214.15625 103.039062 -213.601562 94.59375 -212.5 C 86.144531 -211.40625 77.390625 -210.125 68.328125 -208.65625 C 59.265625 -207.1875 51.179688 -205.773438 44.078125 -204.421875 C 36.972656 -203.078125 32.320312 -202.160156 30.125 -201.671875 L 22.78125 -126.359375 C 22.53125 -124.648438 22.46875 -122.816406 22.59375 -120.859375 C 22.71875 -118.898438 22.78125 -116.941406 22.78125 -114.984375 C 22.78125 -112.535156 22.59375 -110.941406 22.21875 -110.203125 C 21.851562 -109.460938 21.671875 -107.75 21.671875 -105.0625 C 21.671875 -99.675781 21.789062 -93.492188 22.03125 -86.515625 C 22.28125 -79.535156 22.160156 -74.082031 21.671875 -70.15625 C 21.429688 -67.957031 21.25 -63.613281 21.125 -57.125 C 21 -50.632812 20.875 -43.101562 20.75 -34.53125 C 20.632812 -25.957031 20.578125 -17.320312 20.578125 -8.625 C 20.578125 0.0625 20.578125 7.957031 20.578125 15.0625 C 20.578125 22.164062 20.695312 27.304688 20.9375 30.484375 C 20.9375 33.179688 21.242188 37.285156 21.859375 42.796875 C 22.472656 48.304688 22.59375 53.265625 22.21875 57.671875 C 21.851562 62.078125 20.078125 64.28125 16.890625 64.28125 C 12.242188 64.28125 9.429688 61.707031 8.453125 56.5625 C 7.472656 51.425781 6.984375 46.65625 6.984375 42.25 C 6.242188 33.425781 5.8125 23.132812 5.6875 11.375 C 5.570312 -0.375 5.570312 -12.125 5.6875 -23.875 C 5.8125 -35.632812 5.875 -45.921875 5.875 -54.734375 L 6.984375 -72 C 6.984375 -75.425781 6.984375 -80.691406 6.984375 -87.796875 C 6.984375 -94.898438 7.101562 -102.429688 7.34375 -110.390625 C 7.59375 -118.347656 7.835938 -125.628906 8.078125 -132.234375 C 8.328125 -138.847656 8.695312 -143.503906 9.1875 -146.203125 C 9.675781 -148.648438 9.976562 -151.585938 10.09375 -155.015625 C 10.21875 -158.441406 10.40625 -161.378906 10.65625 -163.828125 L 13.953125 -198 C 12.972656 -197.75 10.832031 -197.253906 7.53125 -196.515625 C 4.226562 -195.785156 1.59375 -195.175781 -0.375 -194.6875 C -12.363281 -191.75 -23.804688 -188.625 -34.703125 -185.3125 C -45.609375 -182.007812 -56.816406 -178.15625 -68.328125 -173.75 C -70.523438 -172.769531 -72.539062 -171.726562 -74.375 -170.625 C -76.21875 -169.53125 -78.242188 -168.492188 -80.453125 -167.515625 C -83.390625 -166.285156 -85.285156 -165.425781 -86.140625 -164.9375 C -86.992188 -164.445312 -87.421875 -163.832031 -87.421875 -163.09375 C -87.421875 -162.363281 -88.035156 -160.773438 -89.265625 -158.328125 C -90.242188 -158.078125 -91.222656 -157.890625 -92.203125 -157.765625 C -93.179688 -157.648438 -94.285156 -157.59375 -95.515625 -157.59375 C -97.472656 -157.59375 -99.242188 -158.019531 -100.828125 -158.875 C -102.421875 -159.726562 -103.21875 -161.378906 -103.21875 -163.828125 Z M -103.21875 -163.828125 "/></g></g></g></g></g><g fill="#c9a84c" fill-opacity="1"><g transform="translate(899.703523, 877.157592)"><g><path d="M 13.203125 -40.484375 L 13.203125 -7.703125 L 32.234375 -7.703125 L 32.234375 0 L 5.21875 0 L 5.21875 -40.484375 Z M 13.203125 -40.484375 "/></g></g></g><g fill="#c9a84c" fill-opacity="1"><g transform="translate(967.955943, 877.157592)"><g><path d="M 25.25 -7.921875 L 11.828125 -7.921875 L 8.53125 0 L 0.65625 0 L 18.921875 -42.078125 L 19.359375 -42.078125 L 37.625 0 L 28.375 0 Z M 22.609375 -14.625 L 18.703125 -24.46875 L 14.625 -14.625 Z M 22.609375 -14.625 "/></g></g></g><g fill="#c9a84c" fill-opacity="1"><g transform="translate(1039.23314, 877.157592)"><g><path d="M 26.0625 -21.34375 C 28.195312 -20.351562 29.859375 -19.054688 31.046875 -17.453125 C 32.234375 -15.859375 32.828125 -14.019531 32.828125 -11.9375 C 32.828125 -7.832031 31.476562 -4.816406 28.78125 -2.890625 C 26.09375 -0.960938 22.734375 0 18.703125 0 L 5.21875 0 L 5.21875 -40.484375 L 17.109375 -40.484375 C 21.398438 -40.484375 24.769531 -39.609375 27.21875 -37.859375 C 29.675781 -36.117188 30.90625 -33.601562 30.90625 -30.3125 C 30.90625 -28.289062 30.484375 -26.519531 29.640625 -25 C 28.796875 -23.476562 27.601562 -22.257812 26.0625 -21.34375 Z M 13.203125 -23.921875 L 18.046875 -23.921875 C 19.503906 -23.921875 20.632812 -24.367188 21.4375 -25.265625 C 22.25 -26.171875 22.65625 -27.28125 22.65625 -28.59375 C 22.65625 -29.957031 22.195312 -30.992188 21.28125 -31.703125 C 20.363281 -32.421875 19.097656 -32.78125 17.484375 -32.78125 L 13.203125 -32.78125 Z M 18.3125 -7.421875 C 20.1875 -7.421875 21.695312 -7.796875 22.84375 -8.546875 C 24 -9.304688 24.578125 -10.4375 24.578125 -11.9375 C 24.578125 -14.789062 22.304688 -16.21875 17.765625 -16.21875 L 13.203125 -16.21875 L 13.203125 -7.421875 Z M 18.3125 -7.421875 "/></g></g></g></svg>